<?xml version="1.0" encoding="UTF-8"?>
<svg width="35px" height="35px" viewBox="0 0 35 35" version="1.1" xmlns="http://www.w3.org/2000/svg" xmlns:xlink="http://www.w3.org/1999/xlink">
    <title>athletics-ico</title>
    <g id="Final" stroke="none" stroke-width="1" fill="none" fill-rule="evenodd">
        <g id="Closed-Menu" transform="translate(-13.000000, -555.000000)">
            <g id="A-side">
                <g id="Locations-section" transform="translate(0.000000, 473.000000)">
                    <g id="athletics-ico" transform="translate(13.000000, 82.000000)">
                        <circle id="Athletics-and-Rec-icon" fill="#004B85" cx="17.5" cy="17.5" r="17.5"></circle>
                        <g id="20_3017-icon-athletics" transform="translate(5.000000, 8.000000)" fill="#FFFFFF" fill-rule="nonzero">
                            <path d="M24.4,12.67 C23.9940172,12.9931087 23.5588014,13.2776728 23.1,13.52 C22.21,13.98 21.19,14.05 19.8,14.52 C16.12,15.87 14.06,13.74 10.31,13.74 C6.56,13.74 5.56,14.47 4.31,14.47 C2.96353762,14.4405429 1.66247586,13.9776314 0.6,13.15 C0.6,13.15 -0.12,13.64 0.89,14.99 C1.82071474,15.8641547 3.03431694,16.3751451 4.31,16.43 C5.58,16.43 6.58,15.7 10.31,15.7 C14.04,15.7 16.12,17.83 19.8,16.48 C21.19,16 23,15.86 23.72,15 C24.66,13.81 24.93,13.27 24.4,12.67 Z" id="Path"></path>
                            <path d="M0.87,10.74 C1.80314845,11.6104028 3.01529991,12.1207823 4.29,12.18 C5.56,12.18 6.56,11.45 10.29,11.45 C14.02,11.45 16.1,13.57 19.78,12.23 C21.17,11.71 23.11,11.36 23.7,10.66 C24.1317567,10.2077028 24.3147835,9.57271176 24.19,8.96 C24.096088,8.56791118 23.9032923,8.20641928 23.63,7.91 C23.14,7.35 21.34,7.22 18.34,7.22 L17.81,7.22 L16.31,9.62 C16.1613971,9.86429107 15.9204024,10.0381844 15.6417229,10.1022054 C15.3630434,10.1662264 15.0703191,10.1149441 14.83,9.96 C14.5878566,9.8095178 14.4157791,9.56862457 14.3519474,9.29076884 C14.2881157,9.0129131 14.3378084,8.72107266 14.49,8.48 L15.56,6.77 C15.0268937,6.59657453 14.5028921,6.39631915 13.99,6.17 L12.23,9 C12.0332755,9.3125363 11.6892927,9.50153781 11.32,9.5 C11.1189484,9.49975955 10.9218077,9.44442183 10.75,9.34 C10.2504227,9.02306787 10.0988281,8.36318532 10.41,7.86 L12.08,5.19 L11.7,5 C11.0322185,4.56183289 10.4062381,4.06305711 9.83,3.51 C9.14,2.86 6.83,0.19 6.15,0.86 C4.9,2 8,5.39 8,5.39 C6.96297014,5.80394505 5.83797833,5.94843941 4.73,5.81 C4.10759017,5.7477611 3.52020144,5.4925267 3.05,5.08 C3.05,5.08 1.84,4.19 1.28,4.6 C0.72,5.01 0.14,8.72 0.57,10.16 C0.637550261,10.3684629 0.738900818,10.5644073 0.87,10.74 Z" id="Path"></path>
                        </g>
                    </g>
                </g>
            </g>
        </g>
    </g>
</svg>