<?xml version="1.0" encoding="UTF-8"?>
<svg width="35px" height="35px" viewBox="0 0 35 35" version="1.1" xmlns="http://www.w3.org/2000/svg" xmlns:xlink="http://www.w3.org/1999/xlink">
    <title>academics-ico</title>
    <g id="Final" stroke="none" stroke-width="1" fill="none" fill-rule="evenodd">
        <g id="Closed-Menu" transform="translate(-13.000000, -510.000000)">
            <g id="A-side">
                <g id="Locations-section" transform="translate(0.000000, 473.000000)">
                    <g id="academics-ico" transform="translate(13.000000, 37.000000)">
                        <circle id="Academics-and-Admin-icon" fill="#004B85" cx="17.5" cy="17.5" r="17.5"></circle>
                        <g id="20_3017-icon-academics" transform="translate(5.000000, 8.000000)" fill="#FFFFFF" fill-rule="nonzero">
                            <path d="M23.27,3.79 L22.21,3.68 C22.21,2.62 22.07,1.17 20.54,0.85 C18.9239657,0.566337951 17.2655427,0.637998202 15.68,1.06 C14.5336788,1.35162107 13.4540947,1.86085882 12.5,2.56 C11.5459053,1.86085882 10.4663212,1.35162107 9.32,1.06 C7.7344573,0.637998202 6.07603435,0.566337951 4.46,0.85 C2.93,1.17 2.79,2.62 2.79,3.68 L1.73,3.79 C0.03,4.05 0.25,5.49 0.25,6.61 L0.25,16.89 C2.34378515,16.5792744 4.47362336,16.6029017 6.56,16.96 C8.67482512,17.3522306 10.6926311,18.1539178 12.5,19.32 C14.3104161,18.1679939 16.3280455,17.3799636 18.44,17 C20.3489914,16.6662314 22.297088,16.6190457 24.22,16.86 L24.75,16.93 L24.75,6.61 C24.75,5.49 25,4.05 23.27,3.79 Z M13.27,3.84 C14.1095814,3.17805208 15.0814745,2.70404103 16.12,2.45 C17.4845534,2.09259575 18.9097737,2.03122263 20.3,2.27 C20.72,2.36 20.83,2.72 20.81,4.02 L20.81,13.81 C19.4415906,13.6265504 18.0509213,13.7011717 16.71,14.03 C15.4952406,14.3844627 14.3370009,14.9097109 13.27,15.59 L13.27,3.84 Z M4.75,2.27 C6.14022634,2.03122263 7.56544656,2.09259575 8.93,2.45 C9.96852545,2.70404103 10.9404186,3.17805208 11.78,3.84 L11.78,15.59 C10.7121374,14.8974091 9.55025318,14.361932 8.33,14 C7.48758838,13.7815214 6.62026063,13.6739459 5.75,13.68 C5.24510194,13.6826097 4.7408328,13.716005 4.24,13.78 L4.24,4 C4.22,2.72 4.33,2.36 4.75,2.27 Z" id="Shape"></path>
                        </g>
                    </g>
                </g>
            </g>
        </g>
    </g>
</svg>