<?xml version="1.0" encoding="UTF-8"?>
<svg width="35px" height="35px" viewBox="0 0 35 35" version="1.1" xmlns="http://www.w3.org/2000/svg" xmlns:xlink="http://www.w3.org/1999/xlink">
    <title>facility-ico</title>
    <g id="Final" stroke="none" stroke-width="1" fill="none" fill-rule="evenodd">
        <g id="Closed-Menu" transform="translate(-13.000000, -779.000000)">
            <g id="A-side">
                <g id="Locations-section" transform="translate(0.000000, 473.000000)">
                    <g id="facility-ico" transform="translate(13.000000, 306.000000)">
                        <circle id="facility-and-auxiliary-icon" fill="#004B85" cx="17.5" cy="17.5" r="17.5"></circle>
                        <g id="20_3017-icon-facility" transform="translate(8.000000, 6.000000)" fill="#FFFFFF" fill-rule="nonzero">
                            <path d="M16.17,8.18 C15.6598899,8.68323057 14.8401101,8.68323057 14.33,8.18 L12.22,6.11 C11.722097,5.59771587 11.722097,4.78228413 12.22,4.27 L15.34,1.1 C14.8771813,0.995761366 14.4044074,0.942113272 13.93,0.94 C10.8020904,0.872979607 8.21101428,3.35217849 8.14,6.48 C8.14110011,7.08255857 8.24248544,7.68073201 8.44,8.25 L1,15.67 C0.461845234,16.1427716 0.1523426,16.8236774 0.15,17.54 C0.177369988,18.9626058 1.34722942,20.0967444 2.77,20.080183 C3.46675553,20.0806487 4.13678776,19.8119192 4.64,19.33 L12.17,11.78 C12.7289815,11.9414877 13.3081639,12.0223038 13.89,12.02 C15.3912216,12.0521656 16.8437013,11.4864808 17.9277363,10.4474577 C19.0117712,9.40843456 19.6385092,7.9812359 19.6700043,6.48 C19.6707103,5.92301549 19.5829504,5.36945293 19.41,4.84 L16.17,8.18 Z" id="Works"></path>
                        </g>
                    </g>
                </g>
            </g>
        </g>
    </g>
</svg>