<?xml version="1.0" encoding="UTF-8"?>
<svg width="35px" height="35px" viewBox="0 0 35 35" version="1.1" xmlns="http://www.w3.org/2000/svg" xmlns:xlink="http://www.w3.org/1999/xlink">
    <title>health-ico</title>
    <g id="Final" stroke="none" stroke-width="1" fill="none" fill-rule="evenodd">
        <g id="Closed-Menu" transform="translate(-13.000000, -734.000000)">
            <g id="A-side">
                <g id="Locations-section" transform="translate(0.000000, 473.000000)">
                    <g id="health-ico" transform="translate(13.000000, 261.000000)">
                        <circle id="Health-and-Safety-icon" fill="#004B85" cx="17.5" cy="17.5" r="17.5"></circle>
                        <g id="20_3017-icon-health" transform="translate(8.000000, 6.000000)" fill="#FFFFFF" fill-rule="nonzero">
                            <path d="M18.7101483,4.11 C18.7157088,3.90385029 18.5559471,3.73077512 18.35,3.72 C11.08,3.72 9.85,0.81 9.84,0.78 C9.78444169,0.639533609 9.6509613,0.545312155 9.5,0.54 L9.5,0.54 C9.35062998,0.541006984 9.21651628,0.631730962 9.16,0.77 C9.16,0.77 7.89,3.77 0.65,3.77 C0.444052945,3.78077512 0.284291244,3.95385029 0.289851667,4.16 L0.289851667,13.24 C0.289851667,18.59 8.99,22.68 9.35,22.85 C9.39955265,22.8594589 9.45044735,22.8594589 9.5,22.85 C9.54609463,22.8603335 9.59390537,22.8603335 9.64,22.85 C12.0187247,21.717676 14.2052616,20.2194932 16.12,18.41 L16.6,17.9 C17.8500292,16.6573061 18.6007835,14.9992421 18.7101483,13.24 L18.7101483,4.11 Z M16.6,11.69 L9.5,11.69 L9.5,20 C9.46050641,20.0090014 9.41949359,20.0090014 9.38,20 C9.1,19.87 2.29,16.67 2.29,12.48 L2.29,12.17 L9.5,12.17 L9.5,3.57 C9.5,3.64 11.07,5.88 16.43,5.88 C16.5069284,5.88260691 16.5796645,5.91569016 16.6321843,5.97196134 C16.684704,6.02823251 16.7126984,6.10307478 16.71,6.18 L16.6,11.69 Z" id="Shape"></path>
                        </g>
                    </g>
                </g>
            </g>
        </g>
    </g>
</svg>