<?xml version="1.0" encoding="UTF-8"?>
<svg width="35px" height="35px" viewBox="0 0 35 35" version="1.1" xmlns="http://www.w3.org/2000/svg" xmlns:xlink="http://www.w3.org/1999/xlink">
    <title>oakes-ico</title>
    <g id="Final" stroke="none" stroke-width="1" fill="none" fill-rule="evenodd">
        <g id="Closed-Menu" transform="translate(-13.000000, -958.000000)">
            <g id="A-side">
                <g id="Locations-section" transform="translate(0.000000, 473.000000)">
                    <g id="oakes-ico" transform="translate(13.000000, 485.000000)">
                        <circle id="oakes-museum-icon" fill="#004B85" cx="17.5" cy="17.5" r="17.5"></circle>
                        <g id="20_3017-icon-oakes-museum" transform="translate(8.000000, 5.000000)" fill="#FFFFFF" fill-rule="nonzero">
                            <path d="M5.47,3.37 C7.41,2.49 7.99,10.52 10.05,9.37 C12.11,8.22 9.59,4 10,2.57 C10.41,1.14 11.11,0.1 12.19,0.57 C12.82,0.8 13.05,3.72 13.69,3.44 C14.33,3.16 15.9,-0.49 17.47,0.27 C19.42,1.27 15.96,4.03 17.65,4.6 C19.34,5.17 19.65,5.72 18.65,6.88 C17.43,8.31 13.08,6.94 13.5,9.34 C13.84,11.34 18.76,9.29 19.02,10.96 C19.28,12.63 15.89,12.16 15.65,12.7 C15.15,13.83 16.88,13.94 16.16,15.09 C15.72,15.8 11.45,13.52 10.66,14.17 C8.93,15.61 15.06,17.94 13.28,19.71 C11.5,21.48 8.15,16.88 7.2,17.84 C5.96,19.11 8.46,20.78 7.51,21.47 C6.56,22.16 4.09,20.57 4.09,20.57 C3.22,21.42 1.34,24.16 1.19,24.1700737 C1.04,24.18 0.07,23.17 0.37,22.93 L2.66,20.67 C3.17562739,18.7805949 3.08822435,16.7773173 2.41,14.94 C1.92,13.32 2.81,11 3.84,12.37 C4.41,13.13 5.19,14.92 6.84,14.07 C7.84,13.56 4.43,9.45 4.31,8.17 C4.24576387,7.89495821 4.40850154,7.61786433 4.68,7.54 C6.9,6.63 3.54,4.25 5.47,3.37 Z" id="Path"></path>
                        </g>
                    </g>
                </g>
            </g>
        </g>
    </g>
</svg>