<?xml version="1.0" encoding="UTF-8"?>
<svg width="35px" height="35px" viewBox="0 0 35 35" version="1.1" xmlns="http://www.w3.org/2000/svg" xmlns:xlink="http://www.w3.org/1999/xlink">
    <title>dining-ico</title>
    <g id="Final" stroke="none" stroke-width="1" fill="none" fill-rule="evenodd">
        <g id="Closed-Menu" transform="translate(-13.000000, -689.000000)">
            <g id="A-side">
                <g id="Locations-section" transform="translate(0.000000, 473.000000)">
                    <g id="dining-ico" transform="translate(13.000000, 216.000000)">
                        <circle id="Dining-and-retail-icon" fill="#004B85" cx="17.5" cy="17.5" r="17.5"></circle>
                        <g id="20_3017-icon-dining" transform="translate(7.000000, 5.000000)" fill="#FFFFFF" fill-rule="nonzero">
                            <path d="M12.84,5.86 C12.26,6.55 12.67,7.86 13.56,8.95 L2.14,22.27 C1.95341854,22.4878361 1.86210446,22.7714604 1.88654582,23.0572362 C1.91098718,23.3430121 2.04913745,23.6070111 2.27,23.79 L2.27,23.79 C2.72762004,24.1675282 3.40313435,24.109754 3.79,23.66 L15,10.2 C16.23,10.88 17.6,11 18.18,10.31 L18.25,10.22 L18.25,10.22 L22.13,5.59 C22.214088,5.4934366 22.2561091,5.36727876 22.2467195,5.23957945 C22.2373298,5.11188013 22.1773078,4.99322548 22.08,4.91 C21.8743953,4.74284836 21.5731585,4.76942809 21.4,4.97 L18.72,8.16 C18.3292802,8.45594584 17.7735823,8.38481652 17.47,8 C17.0593112,7.73867692 16.9308311,7.19817452 17.18,6.78 L19.86,3.59 C19.9731627,3.38512956 19.9220714,3.12851183 19.7390709,2.98260601 C19.5560704,2.83670019 19.2945193,2.84404897 19.12,3 L16.44,6.2 C16.0726996,6.51776686 15.5195252,6.48678909 15.19,6.13 C14.7896165,5.86607975 14.6627503,5.33674143 14.9,4.92 L14.9,4.92 L17.58,1.73 C17.7512083,1.52565464 17.7243454,1.22120828 17.52,1.05000001 C17.3156546,0.878791735 17.0112083,0.905654647 16.84,1.11 L13,5.73 L12.84,5.86 Z" id="Path"></path>
                            <path d="M0.39,2 C-0.09,3.52 1.92,7.68 3.63,9.63 C5.13544915,11.2738949 6.92811915,12.629411 8.92,13.63 L17.18,23.71 C17.354061,24.0970507 17.753469,24.3320795 18.1763457,24.2962927 C18.5992225,24.2605059 18.9534535,23.9616988 19.059995,23.5509015 C19.1665364,23.1401043 19.0021805,22.7068002 18.65,22.47 C18.65,22.47 3.42,4.06 1.17,1.79 C0.9,1.51 0.55,1.52 0.39,2 Z" id="Path"></path>
                        </g>
                    </g>
                </g>
            </g>
        </g>
    </g>
</svg>