<?xml version="1.0" encoding="UTF-8"?>
<svg width="35px" height="35px" viewBox="0 0 35 35" version="1.1" xmlns="http://www.w3.org/2000/svg" xmlns:xlink="http://www.w3.org/1999/xlink">
    <title>music-ico</title>
    <g id="Final" stroke="none" stroke-width="1" fill="none" fill-rule="evenodd">
        <g id="Closed-Menu" transform="translate(-13.000000, -824.000000)">
            <g id="A-side">
                <g id="Locations-section" transform="translate(0.000000, 473.000000)">
                    <g id="music-ico" transform="translate(13.000000, 351.000000)">
                        <circle id="music-theatre-art-icon" fill="#004B85" cx="17.5" cy="17.5" r="17.5"></circle>
                        <g id="20_3017-icon-music" transform="translate(8.000000, 6.000000)" fill="#FFFFFF" fill-rule="nonzero">
                            <path d="M16.72,16.43 C16.7112536,16.2978 16.6877749,16.1669898 16.65,16.04 L16.65,4.67 L16.65,4.67 L16.65,0.52 L4.65,2.52 L4.65,6.67 L4.65,6.67 L4.65,16.77 C4.13000451,16.5457119 3.56566518,16.4431048 3,16.47 C1.3,16.56 2.77555756e-17,17.66 0.08,18.93 C0.16,20.2 1.55,21.16 3.2,21.07 C4.85,20.98 6.14,19.88 6.07,18.61 C6.06468217,18.4781619 6.04455571,18.3473399 6.01,18.22 L6.01,6.47 L15.32,4.89 L15.32,14.61 C14.7814589,14.3649462 14.1902084,14.2583836 13.6,14.3 C11.94,14.39 10.66,15.49 10.73,16.76 C10.8,18.03 12.19,18.98 13.85,18.89 C15.51,18.8 16.79,17.7 16.72,16.43 Z" id="Path"></path>
                        </g>
                    </g>
                </g>
            </g>
        </g>
    </g>
</svg>