<?xml version="1.0" encoding="utf-8"?>
<!-- Generator: Adobe Illustrator 24.0.0, SVG Export Plug-In . SVG Version: 6.00 Build 0)  -->
<svg version="1.1" id="Layer_1" xmlns="http://www.w3.org/2000/svg" xmlns:xlink="http://www.w3.org/1999/xlink" x="0px" y="0px"
	 viewBox="0 0 227 61.29" style="enable-background:new 0 0 227 61.29;" xml:space="preserve">
<style type="text/css">
	.st0{fill:#FFFFFF;}
</style>
<g>
	<g>
		<path class="st0" d="M2.55,27.27v2.86c2.87-1.79,8.06-2.98,13.98-2.98s11.1,1.19,13.98,2.98v-2.86
			c-2.87-1.79-8.06-2.98-13.98-2.98C10.6,24.29,5.42,25.48,2.55,27.27z"/>
		<path class="st0" d="M3.98,31.1v2.73c3.01-1.36,7.51-2.22,12.55-2.22s9.55,0.86,12.55,2.22V31.1c-3.01-1.36-7.51-2.22-12.55-2.22
			S6.97,29.74,3.98,31.1z"/>
		<g>
			<g>
				<path class="st0" d="M21.38,1.78c-0.39-0.48-0.82-0.91-1.28-1.3c-0.03-0.02,0,0.05-0.05,0.01v0.01l-0.02,0.02l0.01,0.03
					c0.11,0.27,0.2,0.56,0.26,0.85c0.95,5.36-5.99,5.5-8.44,10.21c-2.64,5.07,0.9,10.77,1.62,11.86c0.06,0.08,0.19,0.05,0.19-0.06
					c0-0.01,0-0.02,0-0.03c-0.73-4.28-0.41-5.53,0.96-7.66c1.74-2.67,5.45-4.23,5.21-5.74c-0.01-0.06-0.02-0.11-0.05-0.18
					c-0.02-0.07-0.07-0.16-0.07-0.16s0.28,0.2,0.54,0.54c2.53,3.29,1.27,6.54,0.24,8.59c-1.17,2.31-3.5,3.64-3.86,3.88
					c-0.06,0.05-0.11,0.08-0.16,0.11c-0.08,0.06-0.01,0.18,0.08,0.16c0.12-0.03,0.43-0.12,0.95-0.36c1.02-0.46,4.29-1.76,5.86-5.7
					C24.86,13.25,25.73,7.22,21.38,1.78z"/>
			</g>
		</g>
		<path class="st0" d="M37.11,27.2v-0.65c0.73-0.17,1.34-0.66,1.8-1.47c0.52-0.93,0.94-4.56,0.94-4.56s1.84-13.35,2.04-14.86
			c0.2-1.47-0.73-1.84-1.29-2.05V2.97h5.35l5.38,18.57l4.99-18.57h5.56v0.65c-0.45,0.06-0.79,0.24-1.04,0.54
			c-0.25,0.31-0.37,0.71-0.37,1.21c0,0.19,0.01,0.4,0.02,0.58c0.01,0.19,0.05,0.39,0.08,0.57l2.35,16.51
			c0.16,1.05,0.39,1.88,0.7,2.48c0.32,0.6,0.7,0.95,1.15,1.05v0.65h-6.51v-0.65c0.45-0.03,0.81-0.22,1.08-0.54
			c0.27-0.33,0.4-0.76,0.4-1.28c0-0.12,0-0.25-0.01-0.39c-0.01-0.14-0.02-0.28-0.05-0.45L57.2,6.78L51.7,27.2h-2.06L43.56,6.75
			l-2.1,15.19c0,0-0.37,2.82,0.07,3.63c0.31,0.57,0.86,0.87,1.53,1v0.65h-5.95V27.2z"/>
		<path class="st0" d="M68.1,27.2v-0.65c0.54-0.01,0.94-0.25,1.18-0.7c0.24-0.46,0.36-1.21,0.36-2.25V6.62
			c0-1.09-0.12-1.85-0.36-2.3s-0.64-0.68-1.18-0.7V2.97h16.92l0.4,4.72l-0.7,0.1c-0.42-1.24-1.21-1.72-2.23-2.18
			c-1.16-0.52-2.91-0.79-5.8-0.79h-1.03c-1.2,0-1.93,0.1-2.19,0.31c-0.25,0.2-0.37,0.78-0.37,1.64v5.85h3.5
			c1.84,0,2.96,0.03,3.75-0.19c0.79-0.23,1.41-0.95,1.7-1.81h0.56v5.76h-0.59c-0.29-0.85-1.12-1.6-1.77-1.77
			c-0.94-0.25-1.35-0.18-3.18-0.18h-3.98v8.53c0,1.08,0.17,1.74,0.52,1.98c0.35,0.25,1.27,0.37,2.74,0.37c1.77,0,3.04-0.03,3.8-0.11
			c0.76-0.08,2.34-0.32,3.81-1.21c0.87-0.52,1.63-1.02,2.38-2.06l0.7,0.37l-1.42,4.91H68.1z"/>
		<path class="st0" d="M115.81,58.07v-0.64c0.54-0.01,0.94-0.25,1.18-0.7c0.24-0.46,0.36-1.21,0.36-2.25v-17
			c0-1.09-0.12-1.85-0.36-2.3c-0.24-0.45-0.64-0.68-1.18-0.7v-0.65h16.92l0.4,4.72l-0.7,0.1c-0.42-1.24-1.21-1.72-2.23-2.18
			c-1.16-0.52-2.91-0.79-5.8-0.79h-1.03c-1.2,0-1.93,0.1-2.19,0.31c-0.25,0.2-0.37,0.78-0.37,1.64v5.85h3.5
			c1.84,0,2.96,0.03,3.75-0.19c0.79-0.23,1.41-0.95,1.7-1.81h0.56v5.76h-0.59c-0.29-0.85-1.12-1.6-1.77-1.77
			c-0.94-0.25-1.35-0.18-3.18-0.18h-3.98v8.53c0,1.08,0.17,1.74,0.52,1.98c0.35,0.25,1.27,0.37,2.74,0.37c1.77,0,3.04-0.03,3.8-0.11
			c0.76-0.08,2.34-0.32,3.81-1.21c0.87-0.52,1.63-1.02,2.38-2.06l0.7,0.37l-1.42,4.91L115.81,58.07L115.81,58.07z"/>
		<path class="st0" d="M108.3,24.6l1.32-4.66l0.74,0.14c0,0,0.74,5.75,6.58,5.78c6.35,0.03,6.1-5.57,4.39-7
			c-1.03-0.86-2.36-1.7-4.79-2.67c-0.19-0.08-0.5-0.19-0.92-0.36c-2.27-0.87-3.8-1.74-4.58-2.56c-0.58-0.61-1.02-1.28-1.32-2
			c-0.29-0.71-0.44-1.47-0.44-2.28c0-1.87,0.69-3.44,2.08-4.68c1.38-1.25,3.12-1.87,5.22-1.87c1.15,0,2.34,0.2,3.56,0.6
			c1.22,0.4,2.46,1,3.72,1.78L122.76,9l-0.67-0.14c-0.44-1.7-1.39-4.59-5.85-4.59c-4.46,0-4.98,4.31-3.53,5.87
			c0.7,0.73,2.08,1.51,4.14,2.35c0.22,0.09,0.53,0.22,0.95,0.4c2.84,1.13,4.66,2.11,5.47,2.9c0.61,0.59,1.07,1.27,1.37,2.04
			c0.31,0.77,0.45,1.63,0.45,2.6c0,2.11-0.77,3.86-2.3,5.24c-1.53,1.38-3.49,2.08-5.89,2.08c-1.6,0-3.13-0.27-4.6-0.81
			C110.83,26.41,109.5,25.63,108.3,24.6z"/>
		<path class="st0" d="M157.34,55.51l1.32-4.66l0.74,0.14c0,0,0.74,5.75,6.58,5.78c6.35,0.03,6.1-5.57,4.39-7
			c-1.03-0.86-2.36-1.7-4.79-2.67c-0.19-0.08-0.5-0.19-0.92-0.36c-2.27-0.87-3.8-1.74-4.58-2.56c-0.58-0.61-1.02-1.28-1.32-2
			c-0.29-0.71-0.44-1.47-0.44-2.28c0-1.87,0.69-3.44,2.08-4.68c1.38-1.25,3.12-1.87,5.22-1.87c1.15,0,2.34,0.2,3.56,0.6
			c1.22,0.4,2.46,1,3.72,1.78l-1.09,4.17l-0.67-0.14c-0.44-1.7-1.39-4.59-5.85-4.59c-4.46,0-4.98,4.31-3.53,5.87
			c0.7,0.73,2.08,1.51,4.14,2.35c0.22,0.09,0.53,0.22,0.95,0.4c2.84,1.13,4.66,2.11,5.47,2.9c0.61,0.59,1.07,1.27,1.37,2.04
			s0.45,1.63,0.45,2.6c0,2.11-0.77,3.86-2.3,5.24c-1.53,1.38-3.49,2.08-5.89,2.08c-1.6,0-3.13-0.27-4.6-0.81
			C159.87,57.31,158.53,56.53,157.34,55.51z"/>
		<path class="st0" d="M89.16,24.6l1.32-4.66l0.74,0.14c0,0,0.74,5.75,6.58,5.78c6.35,0.03,6.1-5.57,4.39-7
			c-1.03-0.86-2.36-1.7-4.79-2.67c-0.19-0.08-0.5-0.19-0.92-0.36c-2.27-0.87-3.8-1.74-4.58-2.56c-0.58-0.61-1.02-1.28-1.32-2
			C90.28,10.56,90.14,9.8,90.14,9c0-1.87,0.69-3.44,2.08-4.68c1.38-1.25,3.12-1.87,5.22-1.87c1.15,0,2.34,0.2,3.56,0.6
			s2.46,1,3.72,1.78L103.62,9l-0.67-0.14c-0.44-1.7-1.39-4.59-5.85-4.59c-4.46,0-4.98,4.31-3.53,5.87c0.7,0.73,2.08,1.51,4.14,2.35
			c0.22,0.09,0.53,0.22,0.95,0.4c2.84,1.13,4.66,2.11,5.47,2.9c0.61,0.59,1.07,1.27,1.37,2.04c0.31,0.77,0.45,1.63,0.45,2.6
			c0,2.11-0.77,3.86-2.3,5.24c-1.53,1.38-3.49,2.08-5.89,2.08c-1.6,0-3.13-0.27-4.6-0.81C91.69,26.41,90.36,25.63,89.16,24.6z"/>
		<path class="st0" d="M128.01,27.2v-0.62c0.56-0.03,0.95-0.27,1.19-0.73s0.35-1.2,0.35-2.25V6.62c0-1.07-0.12-1.83-0.36-2.28
			c-0.24-0.46-0.64-0.7-1.18-0.73V2.97h6.59v0.65c-0.54,0.02-0.94,0.26-1.18,0.7c-0.24,0.45-0.36,1.21-0.36,2.3v16.99
			c0,1.07,0.11,1.81,0.35,2.26s0.64,0.68,1.19,0.7v0.65h-6.59V27.2z"/>
		<path class="st0" d="M84.62,58.07v-0.62c0.56-0.03,0.95-0.27,1.19-0.73c0.24-0.45,0.35-1.2,0.35-2.25V37.49
			c0-1.07-0.12-1.83-0.36-2.28c-0.24-0.46-0.64-0.7-1.18-0.73v-0.65h6.59v0.65c-0.54,0.02-0.94,0.26-1.18,0.7
			c-0.24,0.45-0.36,1.21-0.36,2.3v16.99c0,1.07,0.11,1.81,0.35,2.26c0.24,0.44,0.64,0.68,1.19,0.7v0.65h-6.59V58.07z"/>
		<path class="st0" d="M175.81,58.07v-0.62c0.56-0.03,0.95-0.27,1.19-0.73c0.24-0.45,0.35-1.2,0.35-2.25V37.49
			c0-1.07-0.12-1.83-0.36-2.28c-0.24-0.46-0.64-0.7-1.18-0.73v-0.65h6.59v0.65c-0.54,0.02-0.94,0.26-1.18,0.7
			c-0.24,0.45-0.36,1.21-0.36,2.3v16.99c0,1.07,0.11,1.81,0.35,2.26c0.24,0.44,0.64,0.68,1.19,0.7v0.65h-6.59V58.07z"/>
		<path class="st0" d="M212.4,58.07v-0.62c0.54-0.02,0.95-0.26,1.2-0.73s0.37-1.21,0.37-2.25l0.01-6.16l-5.64-10.17l-0.15-0.26
			c-1.24-2.2-2.22-3.35-2.94-3.44v-0.61h6.78v0.61c-0.36,0.05-0.64,0.15-0.81,0.29c-0.17,0.16-0.26,0.37-0.26,0.66
			c0,0.22,0.1,0.57,0.31,1.03c0.2,0.48,0.51,1.07,0.91,1.79l4.4,8c0,0,4.38-7.84,4.66-8.37c0.5-0.94,0.58-1.27,0.58-1.68
			c0-0.46-0.15-0.86-0.44-1.19c-0.29-0.33-0.66-0.51-1.1-0.53v-0.61h6v0.61c-0.56,0.07-0.98,0.1-1.39,0.67
			c-0.41,0.54-0.77,1.16-2.06,3.58l-5.41,9.61l-0.01,6.16c0,1.07,0.11,1.81,0.35,2.26c0.24,0.44,0.64,0.68,1.19,0.7v0.65
			C218.96,58.07,212.4,58.07,212.4,58.07z"/>
		<path class="st0" d="M181.2,4.34c0.25-0.46,0.66-0.7,1.21-0.73V2.97h-6.57v0.65c0.56,0.02,0.96,0.26,1.21,0.73
			s0.37,1.22,0.37,2.28v6.25h-11.01V6.62c0-1.09,0.12-1.85,0.36-2.3c0.24-0.45,0.64-0.68,1.18-0.7V2.97h-6.52v0.65
			c0.54,0.02,0.94,0.26,1.18,0.7c0.24,0.45,0.36,1.21,0.36,2.3v16.99c0,1.04-0.12,1.79-0.36,2.25c-0.24,0.46-0.64,0.69-1.18,0.7
			v0.65h6.52v-0.65c-0.54-0.01-0.94-0.24-1.18-0.69c-0.24-0.45-0.36-1.2-0.36-2.27v-8.94h11.01v8.94c0,1.03-0.12,1.77-0.37,2.23
			s-0.65,0.7-1.2,0.73l-0.01,0.65h6.57l-0.01-0.65c-0.26-0.02-0.49-0.08-0.67-0.17c-0.18-0.09-0.33-0.23-0.43-0.4
			c-0.16-0.25-0.28-0.56-0.35-0.92c-0.07-0.36-0.11-0.85-0.12-1.46V6.62C180.83,5.55,180.95,4.79,181.2,4.34z"/>
		<path class="st0" d="M151.71,26.57v0.65h6.56l-0.01-0.65c-0.42-0.02-0.81-0.31-1.18-0.85c-0.36-0.54-0.74-1.42-1.12-2.61
			l-6.53-20.13h-2.73l-6,18.39c-0.59,1.85-1.17,3.16-1.74,3.95s-0.88,0.96-1.71,1.25v0.65h5.92v-0.65c-0.53-0.11-1.01-0.32-1.29-0.7
			s-0.45-0.86-0.2-1.61c0.12-0.37,1.53-4.68,1.53-4.68h8.04l1.24,4.09c0.03,0.1,0.08,0.24,0.14,0.41c0.18,0.6,0.28,1.02,0.28,1.25
			c0,0.31-0.1,0.57-0.32,0.79C152.33,26.34,152.05,26.49,151.71,26.57z M147.34,6.79l3.33,10.97h-6.9L147.34,6.79z"/>
		<path class="st0" d="M104.18,54.25l-5.11-16.86c-0.03-0.1-0.08-0.24-0.14-0.41c-0.18-0.6-0.28-1.02-0.28-1.25
			c0-0.31,0.1-0.57,0.32-0.79c0.22-0.23,0.5-0.37,0.85-0.45v-0.65h-6.56l0.01,0.65c0.42,0.02,0.81,0.31,1.18,0.85
			c0.36,0.54,0.74,1.42,1.12,2.61l6.53,20.13h2.73l6-18.39c0.59-1.85,1.17-3.16,1.74-3.95s0.88-0.96,1.71-1.25v-0.65h-5.91v0.65
			c0.53,0.11,1.01,0.32,1.29,0.7c0.28,0.39,0.45,0.86,0.2,1.61C109.73,37.17,104.18,54.25,104.18,54.25z"/>
		<path class="st0" d="M20.07,0.46c-0.02,0-0.03,0.01-0.03,0.03c0,0.02,0.01,0.03,0.03,0.03s0.03-0.01,0.03-0.03
			C20.11,0.48,20.08,0.46,20.07,0.46z"/>
		<path class="st0" d="M26.4,54.26L26.4,54.26c0,0,0-0.92,0-0.93V36.67c0-0.82,0.93-1.42,1.43-1.63v-0.07
			c-2.54-0.92-5.85-1.52-9.52-1.68l-1.81,3.12l-1.78-3.11c-3.64,0.16-6.92,0.76-9.44,1.67v0.07c0.5,0.22,1.43,0.82,1.43,1.63v18.34
			c0,1.63-1.15,2.34-1.98,2.76c-0.07,0.03-0.12,0.06-0.19,0.09H4.52c-0.01,0-0.02,0.01-0.03,0.01c-1.28,0.61-2.62,1.33-4.14,2.15
			l0.25,0.54c0,0,7.03-2.4,15.91-2.96c8.89-0.54,13.99,0.45,13.99,0.45v-3.81C29.04,54.25,27.68,54.25,26.4,54.26z M18.59,38.06
			c0-0.41,0.14-0.78,0.35-1.09c0.12-0.18,0.28-0.34,0.46-0.46c0.34-0.24,0.77-0.39,1.24-0.39c0.59,0,1.12,0.24,1.5,0.61l0.01,0.01
			c0.34,0.35,0.54,0.81,0.54,1.32c0,0.03,0,2.43,0,2.43c0,0.01,0,0.01,0,0.02v13.81c-1.51,0.03-2.87,0.09-4.13,0.17V41.55l0,0
			C18.59,41.55,18.59,38.08,18.59,38.06z M10.39,38.06c0-1.07,0.93-1.94,2.06-1.94c0.48,0,0.91,0.15,1.26,0.4
			c0.17,0.11,0.33,0.27,0.44,0.44c0.23,0.32,0.36,0.69,0.36,1.1c0,0.02,0,15.13,0,16.81c-1.51,0.2-2.86,0.45-4.13,0.78
			C10.39,53.72,10.39,38.08,10.39,38.06z"/>
		<path class="st0" d="M205.27,34.35"/>
		<path class="st0" d="M55.76,33.84h-2.77l0,0v0.65h0.01c0.81,0.24,1.36,0.75,1.69,1.53c0.17,0.4,0.23,0.92,0.25,1.58
			c0,0.07,0,11.86,0,11.86c0,2.7,0,7.13-6.38,7.13c-4.58,0-5.87-2.3-6.24-4.58c-0.06-0.43-0.1-0.91-0.12-1.39
			c-0.01-0.41-0.02-13.11-0.02-13.11c0-1.09,0.12-1.85,0.36-2.3c0.24-0.45,0.64-0.68,1.18-0.7v-0.65h-6.59v0.65
			c0.54,0.02,0.94,0.26,1.18,0.73s0.36,1.22,0.36,2.28c0,0,0,11.74,0,11.93l0,0c0,0.73-0.01,1.71,0.16,2.79
			c0.05,0.42,0.11,0.78,0.18,1.09c0.23,0.95,0.61,1.76,1.13,2.43c0.28,0.34,0.59,0.66,0.94,0.94c0.94,0.82,2.26,1.45,4.08,1.76
			c0.02,0,0.05,0.01,0.07,0.01c0.03,0.01,0.07,0.01,0.11,0.02c0.67,0.1,1.38,0.16,2.14,0.16c0.03,0,0.06,0,0.09,0
			c0.02,0,0.05,0,0.07,0c9.07,0,9.11-6.43,9.11-9.16l0,0V37.45c0.02-0.59,0.08-1.08,0.24-1.44c0.32-0.78,0.88-1.29,1.67-1.53v-0.65
			C58.67,33.84,55.76,33.84,55.76,33.84z"/>
		<path class="st0" d="M76.81,33.84v0.65h0.01c0.81,0.24,1.36,0.75,1.69,1.53c0.17,0.4,0.23,0.92,0.25,1.58c0,0.05,0,4.54,0,14.61
			L65.74,33.84h-5.11v0.65c0.2,0,0.4,0.03,0.58,0.1c0.29,0.11,0.52,0.32,0.68,0.62c0.24,0.46,0.36,1.22,0.36,2.28v16.95
			c-0.02,0.59-0.08,1.08-0.24,1.44c-0.19,0.46-0.46,0.83-0.82,1.1c-0.18,0.14-0.39,0.25-0.6,0.34c-0.08,0.03-0.16,0.06-0.24,0.09
			v0.01v0.62v0.01h5.83v-0.62c-0.78-0.16-1.36-0.61-1.77-1.38c-0.06-0.1-0.1-0.22-0.15-0.33c-0.12-0.37-0.17-0.84-0.19-1.41
			c0-0.05,0-5.47,0-16.97l14.7,20.71l0,0l0,0h1.83V37.45c0.02-0.59,0.08-1.08,0.24-1.44c0.32-0.78,0.88-1.29,1.67-1.53v-0.65
			C82.5,33.84,76.81,33.84,76.81,33.84z"/>
		<path class="st0" d="M203.02,33.84h-18.34l-1.28,4.88l0.74,0.32c0,0,0.74-1.27,2.73-2.46c1-0.59,2.43-0.88,4.3-0.88
			c0.39,0,0.64,0.07,0.74,0.19c0.11,0.12,0.16,0.4,0.16,0.79v17.81c0,1.04-0.11,1.79-0.35,2.25c-0.24,0.45-0.62,0.69-1.18,0.71
			l-0.01,0.65h6.63l-0.01-0.65c-0.54-0.02-0.94-0.26-1.18-0.71c-0.24-0.45-0.35-1.2-0.35-2.25V36.67c0-0.41,0.06-0.67,0.16-0.79
			c0.11-0.12,0.35-0.19,0.74-0.19c1.87,0,3.3,0.29,4.3,0.88c2,1.18,2.73,2.46,2.73,2.46l0.74-0.32L203.02,33.84z"/>
		<path class="st0" d="M153.06,55.1c-1.88-2.21-3.92-4.65-5.24-8.39c1.62-0.28,2.97-0.78,4.05-1.49c2.04-1.34,2.95-2.56,2.95-4.74
			c0-2.18-1.22-3.89-3.23-5.14c-2.01-1.25-4.8-1.86-8.36-1.86c-0.32,0-0.79,0.01-1.44,0.03c-0.65,0.02-1.35,0.06-2.13,0.1
			l-4.14,0.23v0.65c0.54,0.02,0.94,0.26,1.18,0.7c0.24,0.45,0.36,1.21,0.36,2.3v16.99c0,1.04-0.12,1.79-0.36,2.25
			c-0.24,0.46-0.64,0.69-1.18,0.7v0.65h6.52v-0.65c-0.54-0.01-0.94-0.24-1.18-0.69c-0.24-0.45-0.36-1.2-0.36-2.27v-7.75
			c0.59,0.09,1.19,0.16,1.79,0.2c0.42,0.03,0.84,0.06,1.27,0.07c1.71,3.83,3.86,6.77,6.53,9.08c2.76,2.39,5.65,3.92,8.65,4.59
			l0.24-0.84C156.8,58.65,155.06,57.45,153.06,55.1z M141.78,45.18c-0.46-0.03-0.9-0.09-1.29-0.17v-7.42c0-1,0.26-1.66,0.79-1.98
			c0.53-0.32,1.51-0.49,2.94-0.49c2.2,0,7.1,0.34,7.1,5.28c0,4.83-5.41,4.83-8.03,4.83C142.74,45.23,142.25,45.22,141.78,45.18z"/>
	</g>
	<g>
		<path class="st0" d="M222.12,58.08c-0.5,0-0.93-0.18-1.29-0.54c-0.36-0.36-0.54-0.81-0.54-1.3c0-0.51,0.18-0.95,0.54-1.32
			c0.36-0.36,0.79-0.54,1.3-0.54c0.51,0,0.95,0.18,1.32,0.54c0.36,0.36,0.54,0.79,0.54,1.3c0,0.52-0.18,0.96-0.54,1.32
			C223.1,57.9,222.65,58.08,222.12,58.08z M222.12,57.82c0.52,0,0.93-0.19,1.24-0.57c0.25-0.31,0.37-0.65,0.37-1.02
			c0-0.36-0.12-0.7-0.37-1.02c-0.31-0.39-0.71-0.57-1.21-0.57c-0.5,0-0.91,0.19-1.21,0.57c-0.25,0.31-0.37,0.65-0.37,1.02
			c0,0.43,0.16,0.81,0.46,1.12C221.33,57.66,221.7,57.82,222.12,57.82z M221.54,57.23v-2h0.64c0.2,0,0.35,0.05,0.45,0.12
			s0.15,0.2,0.15,0.36c0,0.12-0.03,0.23-0.09,0.33c-0.06,0.1-0.15,0.18-0.26,0.25l0.61,0.93h-0.37l-0.54-0.83h-0.26v0.83
			C221.86,57.23,221.54,57.23,221.54,57.23z M221.84,56.16h0.09c0.18,0,0.31-0.03,0.4-0.1s0.14-0.17,0.14-0.29
			c0-0.1-0.03-0.18-0.11-0.24c-0.07-0.06-0.18-0.08-0.33-0.08h-0.18V56.16z"/>
	</g>
</g>
</svg>
