<?xml version="1.0" encoding="UTF-8"?>
<svg width="26px" height="36px" viewBox="0 0 26 36" version="1.1" xmlns="http://www.w3.org/2000/svg" xmlns:xlink="http://www.w3.org/1999/xlink">
    <title>signs</title>
    <g id="Final" stroke="none" stroke-width="1" fill="none" fill-rule="evenodd">
        <g id="Building-(icon-2)" transform="translate(-47.000000, -356.000000)" fill="#273D5E" fill-rule="nonzero">
            <g id="Group-3" transform="translate(-2.000000, 355.000000)">
                <g id="Group-2" transform="translate(6.000000, 1.000000)">
                    <g id="signs" transform="translate(43.000000, 0.000000)">
                        <path d="M13,0 C5.8318,0 0,5.67759375 0,12.65625 C0,15.0141094 0.670872222,17.3151563 1.94053889,19.3114687 L12.2600111,35.5014141 C12.4576833,35.8115625 12.8059389,36 13.1804833,36 C13.1833722,36 13.1861889,36 13.1890778,36 C13.5668722,35.9971172 13.91585,35.8028438 14.1099111,35.4872813 L24.16635,19.1404688 C25.3659611,17.1863437 26,14.9441484 26,12.65625 C26,5.67759375 20.1682,0 13,0 Z M22.3069889,18.0575156 L13.1640889,32.9193281 L3.78206111,18.2001094 C2.72523333,16.5384844 2.15222222,14.6214844 2.15222222,12.65625 C2.15222222,6.84070313 7.0265,2.0953125 13,2.0953125 C18.9735,2.0953125 23.8405556,6.84070313 23.8405556,12.65625 C23.8405556,14.5631953 23.3053167,16.4311875 22.3069889,18.0575156 Z" id="Shape"></path>
                        <path d="M13.5,6 C9.9159,6 7,8.9159 7,12.5 C7,16.0612056 9.86845,19 13.5,19 C17.1763278,19 20,16.0220611 20,12.5 C20,8.9159 17.0841,6 13.5,6 Z M13.5,16.8477778 C11.0981056,16.8477778 9.15222222,14.8953944 9.15222222,12.5 C9.15222222,10.1106 11.1106,8.15222222 13.5,8.15222222 C15.8894,8.15222222 17.8405556,10.1106 17.8405556,12.5 C17.8405556,14.8604389 15.9399556,16.8477778 13.5,16.8477778 Z" id="Shape"></path>
                    </g>
                </g>
            </g>
        </g>
    </g>
</svg>