<?xml version="1.0" encoding="UTF-8"?>
<svg width="35px" height="30px" viewBox="0 0 35 30" version="1.1" xmlns="http://www.w3.org/2000/svg" xmlns:xlink="http://www.w3.org/1999/xlink">
    <title>electronics</title>
    <g id="Final" stroke="none" stroke-width="1" fill="none" fill-rule="evenodd">
        <g id="Building-(icon-2)" transform="translate(-313.000000, -362.000000)" fill="#273D5E" fill-rule="nonzero">
            <g id="Group-3" transform="translate(-2.000000, 355.000000)">
                <g id="Group-2" transform="translate(276.000000, 4.000000)">
                    <g id="electronics" transform="translate(39.000000, 3.000000)">
                        <path d="M17.2916667,10.6085714 C15.3680952,10.6085714 13.8086508,12.1679365 13.8086508,14.0915873 C13.8086508,16.0151587 15.3680159,17.5746032 17.2916667,17.5746032 C19.2152381,17.5746032 20.7746825,16.0152381 20.7746825,14.0915873 C20.7746825,12.1679365 19.2153175,10.6085714 17.2916667,10.6085714 Z M17.2916667,15.9159524 C16.2840476,15.9159524 15.4672222,15.099127 15.4672222,14.0915079 C15.4672222,13.0838889 16.2840476,12.2670635 17.2916667,12.2670635 L17.2916667,12.2670635 C18.2992857,12.2670635 19.1161111,13.0838889 19.1161111,14.0915079 C19.1161111,15.099127 18.2992857,15.9159524 17.2916667,15.9159524 Z" id="Shape"></path>
                        <path d="M31.1822222,2.64738095 L8.54277778,0.0766666667 C7.66412698,-0.0482539683 6.77388889,0.208253968 6.09642857,0.781587302 C5.41904762,1.3068254 4.98484127,2.08539683 4.89396825,2.93769841 L4.47936508,6.33777778 L3.19388889,6.33777778 C1.36944444,6.33777778 0.00111111111,7.95484127 0.00111111111,9.77928571 L0.00111111111,26.7380952 C-0.0448412698,28.4778571 1.32825397,29.9255556 3.06809524,29.9715079 C3.11,29.9725899 3.15198413,29.9725899 3.19388889,29.9725899 L25.9576984,29.9725899 C27.7821429,29.9725899 29.4407143,28.5625397 29.4407143,26.7380952 L29.4407143,26.0746825 C30.0063492,25.9653968 30.5429365,25.7394444 31.0163492,25.4112698 C31.6881746,24.8456349 32.1183333,24.0446032 32.2188095,23.1722222 L34.1261905,6.33777778 C34.3206349,4.50912698 33.0083333,2.86412698 31.1822222,2.64738095 Z M27.7822222,26.7380952 C27.7822222,27.6503175 26.8699206,28.3137302 25.9576984,28.3137302 L3.19388889,28.3137302 C2.36984127,28.3379365 1.68222222,27.6895238 1.65801587,26.8654762 C1.65674603,26.8230159 1.65735335,26.7805556 1.65968254,26.7380952 L1.65968254,23.6697619 L8.08666667,18.9428571 C8.85873016,18.3500794 9.94619048,18.4027778 10.6574603,19.0672222 L15.1770635,23.0477778 C15.8634127,23.6240476 16.727381,23.9461905 17.6234921,23.96 C18.324127,23.9685714 19.013254,23.7819841 19.6138095,23.4209524 L27.7822222,18.6940476 L27.7822222,26.7380952 L27.7822222,26.7380952 Z M27.7821429,16.7452381 L18.7429365,22.0111905 C17.966746,22.4710317 16.9842857,22.3877778 16.2965079,21.8038889 L11.7354762,17.7818254 C10.428254,16.6585714 8.51761905,16.5896825 7.13293651,17.6159524 L1.65968254,21.5965079 L1.65968254,9.77928571 C1.65968254,8.86706349 2.28166667,7.99634921 3.19388889,7.99634921 L25.9576984,7.99634921 C26.9323016,8.03674603 27.7193651,8.80595238 27.7821429,9.77928571 L27.7821429,16.7452381 L27.7821429,16.7452381 Z M32.4692063,6.11388889 C32.4686508,6.11936508 32.4681746,6.12492063 32.4675397,6.13039683 L30.5187302,22.9648413 C30.5220635,23.4013492 30.3230159,23.8147619 29.9796825,24.0843651 C29.8138095,24.2502381 29.4406349,24.3331746 29.4406349,24.4161111 L29.4406349,9.77928571 C29.3751587,7.89031746 27.8472222,6.38055556 25.957619,6.33777778 L6.13785714,6.33777778 L6.51103175,3.10357143 C6.59198413,2.6847619 6.81095238,2.3052381 7.13301587,2.02547619 C7.49666667,1.77404762 7.93634921,1.6568254 8.37698413,1.69373016 L30.975,4.30595238 C31.886746,4.39253968 32.5557937,5.20198413 32.4692063,6.11388889 Z" id="Shape"></path>
                    </g>
                </g>
            </g>
        </g>
    </g>
</svg>