<?xml version="1.0" encoding="UTF-8"?>
<svg width="29px" height="29px" viewBox="0 0 29 29" version="1.1" xmlns="http://www.w3.org/2000/svg" xmlns:xlink="http://www.w3.org/1999/xlink">
    <title>earth-grid</title>
    <g id="Final" stroke="none" stroke-width="1" fill="none" fill-rule="evenodd">
        <g id="Building-(icon-2)" transform="translate(-226.000000, -361.000000)" fill="#273D5E" fill-rule="nonzero">
            <g id="Group-3" transform="translate(-2.000000, 355.000000)">
                <g id="Group-2" transform="translate(186.000000, 4.000000)">
                    <g id="earth-grid" transform="translate(42.000000, 2.000000)">
                        <path d="M14.5,0 C6.49195964,0 0,6.49195964 0,14.5 C0,22.5080404 6.49195964,29 14.5,29 C22.5080404,29 29,22.5080404 29,14.5 C28.9910319,6.49573568 22.5042643,0.00896812917 14.5,0 Z M27.0404704,19.5797201 L22.9167969,20.2912679 C23.3888021,18.5601888 23.6436849,16.7771891 23.6755453,14.9833333 L28.0212972,14.9833333 C27.9667806,16.5612468 27.6347249,18.1172119 27.0404704,19.5797201 L27.0404704,19.5797201 Z M0.978702815,14.9833333 L5.32445474,14.9833333 C5.3563151,16.7771891 5.61119792,18.5601888 6.08320313,20.2912679 L1.95952964,19.5797201 C1.36527505,18.1172119 1.03321937,16.5612468 0.978702815,14.9833333 Z M1.95952964,9.42027995 L6.08320313,8.70873208 C5.61119792,10.4398112 5.3563151,12.2228109 5.32445474,14.0166667 L0.978702815,14.0166667 C1.03321937,12.4387532 1.36527505,10.8827881 1.95952964,9.42027995 Z M14.9833333,7.76047365 C16.7200765,7.78265786 18.4525716,7.94077964 20.1647705,8.23365885 L21.8708333,8.52795412 C22.3949951,10.3116618 22.6770182,12.1576742 22.7093506,14.0166667 L14.9833333,14.0166667 L14.9833333,7.76047365 Z M20.3295003,7.28091636 C18.5630208,6.97906901 16.7753011,6.8159912 14.9833333,6.79380698 L14.9833333,0.993806981 C17.7542399,1.26001792 20.1612305,3.79704588 21.5253255,7.48930667 L20.3295003,7.28091636 Z M14.0166667,6.79380698 C12.2246989,6.8159912 10.4374511,6.97906901 8.67097166,7.28091636 L7.47467448,7.48789063 C8.83876953,3.79468589 11.2457601,1.25671385 14.0166667,0.991682913 L14.0166667,6.79380698 Z M8.83570151,8.23365885 C10.5476644,7.94077964 12.2799235,7.78265786 14.0166667,7.76047365 L14.0166667,14.0166667 L6.29064943,14.0166667 C6.32298177,12.1576742 6.6050049,10.3116618 7.12916667,8.52795412 L8.83570151,8.23365885 Z M6.29064943,14.9833333 L14.0166667,14.9833333 L14.0166667,21.2395264 C12.2799235,21.2173421 10.5474284,21.0592204 8.83522948,20.7663411 L7.12916667,20.4720459 C6.6050049,18.6883382 6.32298177,16.8423258 6.29064943,14.9833333 L6.29064943,14.9833333 Z M8.67049969,21.7190836 C10.4369792,22.021403 12.2244629,22.1851888 14.0166667,22.2087891 L14.0166667,28.0087891 C11.2457601,27.7423421 8.83876953,25.2053141 7.47467448,21.5130534 L8.67049969,21.7190836 Z M14.9833333,22.2087891 C16.7753011,22.1851888 18.5625489,22.021403 20.3290283,21.7190836 L21.5253255,21.5121094 C20.1612305,25.2053141 17.7542399,27.7432861 14.9833333,28.0083171 L14.9833333,22.2087891 Z M20.1642985,20.7663411 C18.4523356,21.0592204 16.7200765,21.2173421 14.9833333,21.2395264 L14.9833333,14.9833333 L22.7093506,14.9833333 C22.6770182,16.8423258 22.3949951,18.6883382 21.8708333,20.4720459 L20.1642985,20.7663411 Z M23.6755453,14.0166667 C23.6436849,12.2228109 23.3888021,10.4398112 22.9167969,8.70873208 L27.0404704,9.42027995 C27.6347249,10.8827881 27.9667806,12.4387532 28.0212972,14.0166667 L23.6755453,14.0166667 Z M26.551473,8.35496416 L22.5986654,7.67291667 C21.8880615,5.35466307 20.5586589,3.27406411 18.753239,1.6553223 C22.1292562,2.7819987 24.9289551,5.18710125 26.551473,8.35496416 Z M10.246761,1.6553223 C8.44134115,3.27406411 7.11193849,5.35466307 6.40133464,7.67291667 L2.44852703,8.35496416 C4.07104489,5.18710125 6.8707438,2.7819987 10.246761,1.6553223 Z M2.44852703,20.6450358 L6.40133464,21.3270833 C7.11193849,23.6453369 8.44134115,25.7259359 10.246761,27.3446777 C6.8707438,26.2180013 4.07104489,23.8128987 2.44852703,20.6450358 Z M18.753239,27.3446777 C20.5586589,25.7259359 21.8880615,23.6453369 22.5986654,21.3270833 L26.551473,20.6450358 C24.9289551,23.8128987 22.1292562,26.2180013 18.753239,27.3446777 Z" id="Shape"></path>
                    </g>
                </g>
            </g>
        </g>
    </g>
</svg>