<?xml version="1.0" encoding="UTF-8"?>
<svg width="38px" height="37px" viewBox="0 0 38 37" version="1.1" xmlns="http://www.w3.org/2000/svg" xmlns:xlink="http://www.w3.org/1999/xlink">
    <title>technology</title>
    <g id="Final" stroke="none" stroke-width="1" fill="none" fill-rule="evenodd">
        <g id="Building-(icon-2)" transform="translate(-131.000000, -355.000000)" fill="#273D5E" fill-rule="nonzero">
            <g id="Group-3" transform="translate(-2.000000, 355.000000)">
                <g id="Group-2" transform="translate(96.000000, 0.000000)">
                    <g id="technology" transform="translate(37.000000, 0.000000)">
                        <path d="M12.3068333,12.3982482 L18.4166667,16 L18.4166667,13.8759882 C18.4166667,13.5232945 18.6778339,13.2373798 19,13.2373798 C19.3221661,13.2373798 19.5833333,13.5232945 19.5833333,13.8759882 L19.5833333,16 L25.6931667,12.3982482 C25.8820498,12.2869348 26,12.0711113 26,11.8362728 L26,4.72664471 L24.5265,5.59387501 C24.2426716,5.76105183 23.8887901,5.64468453 23.7360833,5.33396137 C23.5833766,5.0232382 23.6896716,4.63582371 23.9735,4.46864689 L25.3519167,3.65825275 L19.2765,0.0762978473 C19.1038779,-0.0254326158 18.8961221,-0.0254326158 18.7235,0.0762978473 L12.6480833,3.65825275 L14.0265,4.4692855 C14.3103284,4.63646232 14.4166234,5.02387681 14.2639167,5.33459997 C14.1112099,5.64532314 13.7573284,5.76169044 13.4735,5.59451362 L12,4.72664471 L12,11.8362728 C12,12.0711113 12.1179502,12.2869348 12.3068333,12.3982482 Z M16.15275,6.4528034 C16.2260347,6.30353614 16.3505077,6.19227753 16.4987586,6.14352801 C16.6470096,6.09477848 16.8068807,6.11253586 16.9431667,6.19288976 L19,7.40369141 L21.0568333,6.19033532 C21.3406617,6.0231585 21.6945432,6.1395258 21.84725,6.45024897 C21.9999567,6.76097216 21.8936617,7.1483866 21.6098333,7.31556344 L19.5833333,8.5116771 L19.5833333,10.0443374 C19.5833333,10.3970311 19.3221661,10.6829459 19,10.6829459 C18.6778339,10.6829459 18.4166667,10.3970311 18.4166667,10.0443374 L18.4166667,8.5116771 L16.3901667,7.31939509 C16.2535082,7.23916614 16.151653,7.10267028 16.1071045,6.94006428 C16.062556,6.77745828 16.0789807,6.60212558 16.15275,6.4528034 L16.15275,6.4528034 Z" id="Shape"></path>
                        <path d="M31.4766667,15.1051847 L34.2,14.2737524 C34.421176,14.2112803 34.592062,14.0312017 34.6467055,13.8030167 C34.7013489,13.5748317 34.6312039,13.3342277 34.4633424,13.1740643 C34.295481,13.013901 34.0561559,12.9592271 33.8377333,13.0311438 L29.5893333,14.3282301 C29.2542963,14.4307358 29.063779,14.7918895 29.1637333,15.1350177 L30.4304,19.4854448 C30.5104688,19.7601543 30.7571723,19.9484388 31.0371333,19.9485046 C31.098438,19.9484959 31.1594287,19.9395425 31.2182667,19.9219144 C31.3793055,19.8726954 31.5146379,19.7599514 31.5944632,19.6085091 C31.6742886,19.4570667 31.6920609,19.2793449 31.6438667,19.1144782 L30.7958333,16.2018711 C34.5762,18.3284439 36.7333333,21.3311985 36.7333333,24.5233277 C36.7333333,30.6877299 28.7780333,35.7029138 19,35.7029138 C9.22196667,35.7029138 1.26666667,30.6877299 1.26666667,24.5233277 C1.26666667,21.337684 3.42633333,18.3316867 7.20733333,16.2044653 L6.35993333,19.1144782 C6.3117391,19.2793449 6.3295114,19.4570667 6.40933675,19.6085091 C6.48916209,19.7599514 6.62449446,19.8726954 6.78553333,19.9219144 C6.84437133,19.9395425 6.90536203,19.9484959 6.96666667,19.9485046 C7.24662768,19.9484388 7.49333115,19.7601543 7.5734,19.4854448 L8.84006667,15.1350177 C8.94002104,14.7918895 8.74950367,14.4307358 8.41446667,14.3282301 L4.16606667,13.0311438 C3.83386912,12.9373132 3.48937439,13.1326833 3.39079622,13.4708156 C3.29221805,13.8089479 3.47573805,14.1657364 3.8038,14.2737524 L6.52713333,15.1058332 C2.37246667,17.4665302 0,20.8674902 0,24.5233277 C0,31.403073 8.5234,37 19,37 C29.4766,37 38,31.403073 38,24.5233277 C38,20.8616533 35.6319667,17.4658816 31.4766667,15.1051847 L31.4766667,15.1051847 Z" id="Shape"></path>
                        <path d="M13.4544324,26.8582688 C12.9048958,26.8600336 12.4163559,26.5447486 12.2435601,26.0768181 C12.132513,25.7768882 11.7714286,25.6144955 11.4370554,25.7141038 C11.1026823,25.8137121 10.9216408,26.1376017 11.0326878,26.4375316 C11.3721969,27.3496539 12.3116311,27.9737795 13.383305,27.9991954 C14.454979,28.0246112 15.4298681,27.4458857 15.8226363,26.55113 C16.2154044,25.6563743 15.9421142,24.6368044 15.1388196,24 C15.9421142,23.3631956 16.2154044,22.3436257 15.8226363,21.44887 C15.4298681,20.5541143 14.454979,19.9753888 13.383305,20.0008046 C12.3116311,20.0262205 11.3721969,20.6503461 11.0326878,21.5624684 C10.9216408,21.8623983 11.1026823,22.1862879 11.4370554,22.2858962 C11.7714286,22.3855045 12.132513,22.2231118 12.2435601,21.9231819 C12.4495569,21.3693815 13.0876243,21.0437544 13.7236037,21.1678663 C14.359583,21.2919781 14.7891569,21.8259561 14.7200314,22.4064671 C14.6509059,22.986978 14.1052885,23.4275243 13.4544324,23.4283462 C13.1024607,23.4283462 12.8171312,23.6842844 12.8171312,24 C12.8171312,24.3157156 13.1024607,24.5716538 13.4544324,24.5716538 C14.1583759,24.5716538 14.7290349,25.08353 14.7290349,25.7149613 C14.7290349,26.3463926 14.1583759,26.8582688 13.4544324,26.8582688 L13.4544324,26.8582688 Z" id="Shape"></path>
                        <path d="M19.5,28 C20.9614893,27.9151921 22.0753072,26.768769 21.9960163,25.4309169 C22.0753072,24.0930648 20.9614893,22.9466417 19.5,22.8618338 C19.2156016,22.8651631 18.9345277,22.9182611 18.6719466,23.0182624 C18.9298634,22.191619 19.5469434,21.4978717 20.3792217,21.0988718 C20.5896855,21.019643 20.736313,20.8418664 20.7618468,20.6349629 C20.7873806,20.4280595 20.6877709,20.2248463 20.5019146,20.1046772 C20.3160584,19.9845081 20.0734344,19.9664432 19.8687864,20.0575368 C17.0364319,21.2204751 17.0039837,24.9856091 17.0039837,25.1454632 C17.0078419,25.1751973 17.0143109,25.2045989 17.0233278,25.2333829 C17.0183358,25.2996082 17.0039837,25.3635498 17.0039837,25.4309169 C16.9246928,26.768769 18.0385107,27.9151921 19.5,28 Z M19.5,24.0036485 C20.269045,24.0929575 20.8215886,24.724867 20.7480082,25.4309169 C20.8215886,26.1369668 20.269045,26.7688762 19.5,26.8581853 C18.730955,26.7688762 18.1784114,26.1369668 18.2519918,25.4309169 C18.1784114,24.724867 18.730955,24.0929575 19.5,24.0036485 Z" id="Shape"></path>
                        <path d="M24.5,20 C23.1192881,20 22,21.0233491 22,22.2857143 L22,25.7142857 C22,26.9766509 23.1192881,28 24.5,28 C25.8807119,28 27,26.9766509 27,25.7142857 L27,22.2857143 C27,21.0233491 25.8807119,20 24.5,20 Z M25.75,25.7142857 C25.75,26.3454683 25.1903559,26.8571429 24.5,26.8571429 C23.8096441,26.8571429 23.25,26.3454683 23.25,25.7142857 L23.25,22.2857143 C23.25,21.6545317 23.8096441,21.1428571 24.5,21.1428571 C25.1903559,21.1428571 25.75,21.6545317 25.75,22.2857143 L25.75,25.7142857 Z" id="Shape"></path>
                    </g>
                </g>
            </g>
        </g>
    </g>
</svg>