<?xml version="1.0" encoding="UTF-8"?>
<svg width="25px" height="26px" viewBox="0 0 25 26" version="1.1" xmlns="http://www.w3.org/2000/svg" xmlns:xlink="http://www.w3.org/1999/xlink">
    <!-- Generator: Sketch 64 (93537) - https://sketch.com -->
    <title>share icon</title>
    <desc>Created with Sketch.</desc>
    <defs>
        <polygon id="path-1" points="0 0 25 0 25 26 0 26"></polygon>
    </defs>
    <g id="Option-1" stroke="none" stroke-width="1" fill="none" fill-rule="evenodd">
        <g id="Map-icon-click" transform="translate(-1118.000000, -721.000000)">
            <g id="Share-location-button" transform="translate(1094.000000, 705.000000)">
                <g id="share-icon" transform="translate(24.000000, 16.000000)">
                    <mask id="mask-2" fill="white">
                        <use xlink:href="#path-1"></use>
                    </mask>
                    <g id="Clip-2"></g>
                    <path d="M21.2672408,18.5215619 C19.9317668,18.5215619 18.7705247,19.2288335 18.1100854,20.2842583 L7.24202729,14.489017 C7.37703423,14.1033986 7.4655185,13.6940217 7.4655185,13.2608864 C7.4655185,12.7784065 7.36699993,12.3196851 7.20006568,11.8966014 L18.3828359,6.08673954 C19.0679048,6.92925175 20.098701,7.47843813 21.2672408,7.47843813 C23.3288331,7.47843813 25,5.80437915 25,3.73921906 C25,1.67405897 23.3288331,0 21.2672408,0 C19.2047362,0 17.5335693,1.67405897 17.5335693,3.73921906 C17.5335693,3.97680385 17.5618478,4.20799213 17.6038094,4.43369768 L6.11362475,10.4034724 C5.46595636,9.86068253 4.64223163,9.52166731 3.73184704,9.52166731 C1.6711669,9.52166731 0,11.1957263 0,13.2608864 C0,15.3260465 1.6711669,17.0001054 3.73184704,17.0001054 C4.69787638,17.0001054 5.56903598,16.6227111 6.23221192,16.0214389 L17.5545501,22.0579201 C17.5509013,22.1264542 17.5335693,22.1913331 17.5335693,22.2607809 C17.5335693,24.325941 19.2047362,26 21.2672408,26 C23.3288331,26 25,24.325941 25,22.2607809 C25,20.1956208 23.3288331,18.5215619 21.2672408,18.5215619" id="Fill-1" fill="#FFFFFF" mask="url(#mask-2)"></path>
                </g>
            </g>
        </g>
    </g>
</svg>